<?xml version="1.0" encoding="utf-8"?>
<svg width="109" height="109" viewBox="0 0 109 109" style="fill:none;stroke:black;stroke-width:4;stroke-linecap:round;stroke-linejoin:round;" xmlns="http://www.w3.org/2000/svg" xmlns:xlink="http://www.w3.org/1999/xlink">
  <title>漢</title>
  <g id="01_pos_left">
    <g id="01_rad_general">
      <g id="01_strgr_さんずい/水V">
				<set attributeName="stroke" from="black" to="red" begin="mouseover"
					end="mouseout"/>
				<path id="01_1" d="M21.38,19.75c3.31,1.47,8.54,6.05,9.37,8.34"/>
				<path id="02_1" d="M16.75,45.5c3.79,1.15,9.8,4.72,10.75,6.5"/>
				<path id="03_6" d="M14.75,88.21c1.5,1.31,3.31,1.36,4.25-0.25c2.75-4.7,5.5-10.45,8-16.45"/>
      </g>
    </g>
  </g>
  <g id="04_pos_right">
    <g id="04_strgr_くさかんむり/艸V">
			<set attributeName="stroke" from="black" to="#107db6" begin="mouseover"
				end="mouseout"/>
			<path id="04_2" d="M38.07,23.44c0.99,0.4,2.15,0.5,3.14,0.4c10.79-1.09,34.04-4.59,44.49-4.63c1.66-0.01,2.65,0.19,3.48,0.39"/>
			<path id="05_3" d="M49.35,13.24c1.34,1.1,1.77,1.43,1.92,2.11c1.34,6.33,1.99,11.1,2.38,13.4"/>
			<path id="06_3" d="M71.38,10c0.32,0.9,0.67,1.55,0.38,2.68c-1.01,4.07-1.26,9.57-2.37,13.91"/>
    </g>
    <g id="07_strgr_口">
			<set attributeName="stroke" from="black" to="#9f0379" begin="mouseover"
				end="mouseout"/>
      <path id="07_3" d="M41.75,33.46c0.42,0.31,0.85,0.57,1.04,0.96C44.25,37.5,46,46,47,51.53"/>
      <path id="08_11" d="M44.38,35.55c8.62-1.61,31.12-4.38,36.06-4.79c1.8-0.15,2.89,0.88,2.63,1.75c-1.07,3.6-2.32,7.94-3.91,12.92"/>
      <path id="09_2" d="M47.2,48.83c5.8-0.46,25.8-2.25,33.77-2.95"/>
    </g>
    <g id="10_strgr_夫">
			<set attributeName="stroke" from="black" to="#39027d" begin="mouseover"
				end="mouseout"/>
      <path id="10_2" d="M45.21,60.14c0.71,0.29,2.03,0.43,2.74,0.29c2.89-0.57,24.08-3.06,30.52-2.96c1.19,0.02,1.91,0.14,2.5,0.28"/>
      <g id="11_strgr_大">
        <path id="11_2" d="M38.84,72.88c0.71,0.29,2.03,0.43,2.74,0.29c2.89-0.56,39.3-4.58,45.74-4.48c1.19,0.02,1.91,0.14,2.5,0.28"/>
        <path id="12_4" d="M61.85,34.3c0.48,0.95,0.66,1.84,0.66,3.68c0,42.02-6.27,50.77-27.77,58.52"/>
        <path id="13_5" d="M61,72c9.25,7.5,21.02,17.37,29,21c2.69,1.22,4.94,1.62,6,1.79"/>
      </g>
    </g>
  </g>
</svg>
