<?xml version="1.0" encoding="utf-8"?>
<!-- Generator: Adobe Illustrator 11 Build 196, SVG Export Plug-In . SVG Version: 6.0.0 Build 78)  -->
<!DOCTYPE svg PUBLIC "-//W3C//DTD SVG 1.0//EN"    "http://www.w3.org/TR/2001/REC-SVG-20010904/DTD/svg10.dtd" [
	<!ENTITY ns_flows "http://ns.adobe.com/Flows/1.0/">
	<!ENTITY ns_extend "http://ns.adobe.com/Extensibility/1.0/">
	<!ENTITY ns_ai "http://ns.adobe.com/AdobeIllustrator/10.0/">
	<!ENTITY ns_svg "http://www.w3.org/2000/svg">
	<!ENTITY ns_xlink "http://www.w3.org/1999/xlink">
]>
<svg  xmlns:x="&ns_extend;" xmlns:i="&ns_ai;" xmlns:graph="&ns_graphs;"
	 xmlns="&ns_svg;" xmlns:xlink="&ns_xlink;" xmlns:a="http://ns.adobe.com/AdobeSVGViewerExtensions/3.0/" width="109" height="109"
	 viewBox="0 0 109 109" style="overflow:visible;enable-background:new 0 0 109 109" xml:space="preserve">
	<style type="text/css">
	<![CDATA[
		.st0{fill:none;stroke:#000000;stroke-width:3.25;stroke-linecap:round; visibility:hidden}
		.st1{fill:none;stroke:#000000;stroke-width:3;stroke-linecap:round; visibility:hidden}
		.st2{fill:none;stroke:#000000;stroke-width:3.75;stroke-linecap:round; visibility:hidden}
		.st3{fill:none;stroke:#000000;stroke-width:3.5;stroke-linecap:round; visibility:hidden}
		.st4{fill:none;stroke:#000000;stroke-width:6.5;stroke-linecap:round; visibility:hidden}
		.st5{fill:none;stroke:#000000;stroke-width:7;stroke-linecap:round; visibility:hidden}
		.st6{fill:none;stroke:#000000;stroke-width:4.25;stroke-linecap:round; visibility:hidden}
		.st7{fill:none;stroke:#000000;stroke-width:4.75;stroke-linecap:round; visibility:hidden}
		.st8{fill:none;stroke:#000000;stroke-width:6;stroke-linecap:round; visibility:hidden}
		.st9{fill:none;stroke:#F5F5F5;}
		.st10{fill:none;stroke:#000000;stroke-width:5.25;stroke-linecap:round; visibility:hidden}
		.st11{fill:none;stroke:#000000;stroke-width:2.5;stroke-linecap:round; visibility:hidden}
		.st12{fill:none;stroke:#000000;stroke-width:5.5;stroke-linecap:round; visibility:hidden}
		.st13{fill:none;stroke:#000000;stroke-width:5.75;stroke-linecap:round; visibility:hidden}
		.st14{fill:none;stroke:#000000;stroke-width:6.25;stroke-linecap:round; visibility:hidden}
		.st15{fill:none;stroke:#000000;stroke-width:5;stroke-linecap:round; visibility:hidden}
		.st16{fill:none;stroke:#000000;stroke-width:6.75;stroke-linecap:round; visibility:hidden}
		.st17{fill:none;stroke:#000000;stroke-width:4.5;stroke-linecap:round; visibility:hidden}
		.st18{fill:none;stroke:#000000;stroke-width:7.5;stroke-linecap:round; visibility:hidden}
		.st19{fill:none;stroke:#000000;stroke-width:7.75;stroke-linecap:round; visibility:hidden}
		.st20{fill:none;stroke:#000000;stroke-width:4;stroke-linecap:round; visibility:hidden}
		.st21{fill:none;stroke:#000000;stroke-width:2.25;stroke-linecap:round; visibility:hidden}
		.st22{fill:none;stroke:#000000;stroke-width:2.75;stroke-linecap:round; visibility:hidden}
	]]>
	</style>
		<g id="ChangingPathLook">
			<g>
				<g>
					<g>
						<g>
							<path class="st8" d="M27.69,15.99c0.12,0.54,0.21,1.03,0.24,1.51"><animate attributeName="visibility" attributeType="CSS" begin="0s" dur="0.1s" from="hidden" to="visible" fill="freeze"/></path>
							<path class="st13" d="M27.92,17.5c0.05,0.79-0.05,1.56-0.4,2.51"><animate attributeName="visibility" attributeType="CSS" begin="0.5s" dur="0.1s" from="hidden" to="visible" fill="freeze"/></path>
							<path class="st12" d="M27.53,20.01c-0.31,0.82-0.62,1.62-0.93,2.4"><animate attributeName="visibility" attributeType="CSS" begin="0.1s" dur="0.1s" from="hidden" to="visible" fill="freeze"/></path>
							<path class="st10" d="M26.59,22.41c-0.36,0.89-0.73,1.75-1.1,2.58"><animate attributeName="visibility" attributeType="CSS" begin="0.15s" dur="0.1s" from="hidden" to="visible" fill="freeze"/></path>
							<path class="st15" d="M25.49,24.99c-0.5,1.11-1,2.18-1.52,3.23"><animate attributeName="visibility" attributeType="CSS" begin="0.2s" dur="0.1s" from="hidden" to="visible" fill="freeze"/></path>
							<path class="st7" d="M23.96,28.23c-0.65,1.33-1.32,2.61-2,3.88"><animate attributeName="visibility" attributeType="CSS" begin="0.25s" dur="0.1s" from="hidden" to="visible" fill="freeze"/></path>
							<path class="st17" d="M21.96,32.11c-0.72,1.35-1.45,2.68-2.19,4.03"><animate attributeName="visibility" attributeType="CSS" begin="0.3s" dur="0.1s" from="hidden" to="visible" fill="freeze"/></path>
							<path class="st17" d="M19.77,36.14c-0.34,0.62-0.68,1.24-1.02,1.86"><animate attributeName="visibility" attributeType="CSS" begin="0.35s" dur="0.1s" from="hidden" to="visible" fill="freeze"/></path>
							<path class="st7" d="M18.75,38c-0.29,0.53-0.58,1.07-0.87,1.62"><animate attributeName="visibility" attributeType="CSS" begin="0.4s" dur="0.1s" from="hidden" to="visible" fill="freeze"/></path>
							<path class="st15" d="M17.88,39.62c-0.14,0.27-0.26,0.68-0.33,1.14"><animate attributeName="visibility" attributeType="CSS" begin="0.45s" dur="0.1s" from="hidden" to="visible" fill="freeze"/></path>
							<path class="st10" d="M17.54,40.75c-0.07,0.45-0.1,0.94-0.07,1.37"><animate attributeName="visibility" attributeType="CSS" begin="0.5s" dur="0.1s" from="hidden" to="visible" fill="freeze"/></path>
							<path class="st12" d="M17.47,42.12c0.04,0.53,0.16,0.94,0.4,1.05"><animate attributeName="visibility" attributeType="CSS" begin="0.55s" dur="0.1s" from="hidden" to="visible" fill="freeze"/></path>
							<path class="st13" d="M17.88,43.17c0.59,0.25,1.22,0.52,1.87,0.82"><animate attributeName="visibility" attributeType="CSS" begin="0.6s" dur="0.1s" from="hidden" to="visible" fill="freeze"/></path>
							<path class="st12" d="M19.75,43.99c0.56,0.26,1.14,0.53,1.72,0.82"><animate attributeName="visibility" attributeType="CSS" begin="0.65s" dur="0.1s" from="hidden" to="visible" fill="freeze"/></path>
							<path class="st10" d="M21.47,44.81c0.67,0.33,1.35,0.69,2.03,1.06"><animate attributeName="visibility" attributeType="CSS" begin="0.7s" dur="0.1s" from="hidden" to="visible" fill="freeze"/></path>
							<path class="st15" d="M23.5,45.88c0.66,0.36,1.31,0.74,1.94,1.14"><animate attributeName="visibility" attributeType="CSS" begin="0.75s" dur="0.1s" from="hidden" to="visible" fill="freeze"/></path>
							<path class="st7" d="M25.44,47.02c1.28,0.8,2.47,1.65,3.45,2.53"><animate attributeName="visibility" attributeType="CSS" begin="0.8s" dur="0.1s" from="hidden" to="visible" fill="freeze"/></path>
						</g>
						<g>
							<path class="st8" d="M39.75,28.77c0.3,0.64,0.39,2.75,0,3.43"><animate attributeName="visibility" attributeType="CSS" begin="1.1s" dur="0.1s" from="hidden" to="visible" fill="freeze"/></path>
							<path class="st13" d="M39.75,32.2c-0.37,0.65-0.75,1.31-1.14,1.99"><animate attributeName="visibility" attributeType="CSS" begin="1.15s" dur="0.1s" from="hidden" to="visible" fill="freeze"/></path>
							<path class="st12" d="M38.6,34.19c-0.44,0.76-0.89,1.53-1.35,2.32"><animate attributeName="visibility" attributeType="CSS" begin="1.2s" dur="0.1s" from="hidden" to="visible" fill="freeze"/></path>
							<path class="st12" d="M37.26,36.5c-0.53,0.9-1.07,1.82-1.63,2.75"><animate attributeName="visibility" attributeType="CSS" begin="1.25s" dur="0.1s" from="hidden" to="visible" fill="freeze"/></path>
							<path class="st10" d="M35.63,39.25c-0.65,1.09-1.32,2.2-2.01,3.32"><animate attributeName="visibility" attributeType="CSS" begin="1.3s" dur="0.1s" from="hidden" to="visible" fill="freeze"/></path>
							<path class="st15" d="M33.62,42.57c-0.94,1.54-1.91,3.1-2.91,4.66"><animate attributeName="visibility" attributeType="CSS" begin="1.35s" dur="0.1s" from="hidden" to="visible" fill="freeze"/></path>
							<path class="st7" d="M30.71,47.23c-1.35,2.12-2.74,4.24-4.16,6.31"><animate attributeName="visibility" attributeType="CSS" begin="1.4s" dur="0.1s" from="hidden" to="visible" fill="freeze"/></path>
							<path class="st17" d="M26.55,53.54c-1.16,1.71-2.34,3.38-3.52,4.99"><animate attributeName="visibility" attributeType="CSS" begin="1.45s" dur="0.1s" from="hidden" to="visible" fill="freeze"/></path>
							<path class="st7" d="M23.04,58.53c-0.82,1.12-1.65,2.22-2.47,3.27"><animate attributeName="visibility" attributeType="CSS" begin="1.5s" dur="0.1s" from="hidden" to="visible" fill="freeze"/></path>
							<path class="st15" d="M20.57,61.8c-1,1.28-1.99,2.5-2.97,3.64"><animate attributeName="visibility" attributeType="CSS" begin="1.55s" dur="0.1s" from="hidden" to="visible" fill="freeze"/></path>
							<path class="st10" d="M17.59,65.45c-0.91,1.05-0.79,1.88-0.31,2.39"><animate attributeName="visibility" attributeType="CSS" begin="1.6s" dur="0.1s" from="hidden" to="visible" fill="freeze"/></path>
							<path class="st12" d="M17.29,67.83c0.49,0.51,1.34,0.71,1.93,0.49"><animate attributeName="visibility" attributeType="CSS" begin="1.65s" dur="0.1s" from="hidden" to="visible" fill="freeze"/></path>
							<path class="st12" d="M19.21,68.33c0.75-0.27,1.63-0.58,2.59-0.91"><animate attributeName="visibility" attributeType="CSS" begin="1.7s" dur="0.1s" from="hidden" to="visible" fill="freeze"/></path>
							<path class="st10" d="M21.81,67.42c0.75-0.26,1.55-0.52,2.4-0.8"><animate attributeName="visibility" attributeType="CSS" begin="1.75s" dur="0.1s" from="hidden" to="visible" fill="freeze"/></path>
							<path class="st15" d="M24.21,66.62c1.02-0.33,2.09-0.68,3.19-1.03"><animate attributeName="visibility" attributeType="CSS" begin="1.8s" dur="0.1s" from="hidden" to="visible" fill="freeze"/></path>
							<path class="st7" d="M27.4,65.59c1-0.32,2.03-0.64,3.06-0.96"><animate attributeName="visibility" attributeType="CSS" begin="1.85s" dur="0.1s" from="hidden" to="visible" fill="freeze"/></path>
							<path class="st17" d="M30.46,64.62c0.97-0.3,1.95-0.6,2.91-0.89"><animate attributeName="visibility" attributeType="CSS" begin="1.9s" dur="0.1s" from="hidden" to="visible" fill="freeze"/></path>
							<path class="st6" d="M33.37,63.74c0.96-0.29,1.92-0.57,2.84-0.84"><animate attributeName="visibility" attributeType="CSS" begin="1.95s" dur="0.1s" from="hidden" to="visible" fill="freeze"/></path>
							<path class="st20" d="M36.22,62.89c1.61-0.47,3.13-0.9,4.48-1.27"><animate attributeName="visibility" attributeType="CSS" begin="2.0s" dur="0.1s" from="hidden" to="visible" fill="freeze"/></path>
						</g>
						<g>
							<path class="st20" d="M36.61,53.35c0.21,0.22,0.44,0.47,0.67,0.76"><animate attributeName="visibility" attributeType="CSS" begin="2.3s" dur="0.1s" from="hidden" to="visible" fill="freeze"/></path>
							<path class="st6" d="M37.28,54.1c0.27,0.33,0.54,0.7,0.83,1.11"><animate attributeName="visibility" attributeType="CSS" begin="2.325s" dur="0.1s" from="hidden" to="visible" fill="freeze"/></path>
							<path class="st17" d="M38.11,55.21c0.27,0.39,0.55,0.81,0.82,1.26"><animate attributeName="visibility" attributeType="CSS" begin="2.35s" dur="0.1s" from="hidden" to="visible" fill="freeze"/></path>
							<path class="st7" d="M38.93,56.47c0.32,0.52,0.65,1.08,0.97,1.65"><animate attributeName="visibility" attributeType="CSS" begin="2.375s" dur="0.1s" from="hidden" to="visible" fill="freeze"/></path>
							<path class="st15" d="M39.9,58.13c0.25,0.45,0.5,0.91,0.74,1.37"><animate attributeName="visibility" attributeType="CSS" begin="2.4s" dur="0.1s" from="hidden" to="visible" fill="freeze"/></path>
							<path class="st10" d="M40.64,59.5c0.25,0.49,0.5,0.99,0.74,1.48"><animate attributeName="visibility" attributeType="CSS" begin="2.425s" dur="0.1s" from="hidden" to="visible" fill="freeze"/></path>
							<path class="st12" d="M41.38,60.98c0.2,0.41,0.38,0.82,0.57,1.23"><animate attributeName="visibility" attributeType="CSS" begin="2.45s" dur="0.1s" from="hidden" to="visible" fill="freeze"/></path>
							<path class="st13" d="M41.94,62.21c0.19,0.44,0.38,0.87,0.55,1.29"><animate attributeName="visibility" attributeType="CSS" begin="2.475s" dur="0.1s" from="hidden" to="visible" fill="freeze"/></path>
							<path class="st8" d="M42.49,63.51c0.15,0.38,0.3,0.75,0.43,1.11"><animate attributeName="visibility" attributeType="CSS" begin="2.5s" dur="0.1s" from="hidden" to="visible" fill="freeze"/></path>
							<path class="st14" d="M42.92,64.62c0.13,0.35,0.24,0.69,0.35,1.01"><animate attributeName="visibility" attributeType="CSS" begin="2.525s" dur="0.1s" from="hidden" to="visible" fill="freeze"/></path>
							<path class="st4" d="M43.27,65.63c0.28,0.85,0.48,1.63,0.59,2.3"><animate attributeName="visibility" attributeType="CSS" begin="2.55s" dur="0.1s" from="hidden" to="visible" fill="freeze"/></path>
						</g>
						<g>
							<path class="st20" d="M12.78,81.38c0.17,0.14,0.35,0.3,0.52,0.46"><animate attributeName="visibility" attributeType="CSS" begin="2.95s" dur="0.1s" from="hidden" to="visible" fill="freeze"/></path>
							<path class="st6" d="M13.29,81.83c0.29,0.27,0.56,0.56,0.84,0.87"><animate attributeName="visibility" attributeType="CSS" begin="2.975s" dur="0.1s" from="hidden" to="visible" fill="freeze"/></path>
							<path class="st17" d="M14.13,82.7c0.33,0.38,0.66,0.78,0.97,1.2"><animate attributeName="visibility" attributeType="CSS" begin="3.0s" dur="0.1s" from="hidden" to="visible" fill="freeze"/></path>
							<path class="st7" d="M15.1,83.9c0.32,0.42,0.62,0.86,0.92,1.32"><animate attributeName="visibility" attributeType="CSS" begin="3.025s" dur="0.1s" from="hidden" to="visible" fill="freeze"/></path>
							<path class="st15" d="M16.02,85.21c0.32,0.49,0.62,0.99,0.91,1.5"><animate attributeName="visibility" attributeType="CSS" begin="3.05s" dur="0.1s" from="hidden" to="visible" fill="freeze"/></path>
							<path class="st10" d="M16.93,86.72c0.28,0.5,0.55,1,0.81,1.5"><animate attributeName="visibility" attributeType="CSS" begin="3.075s" dur="0.1s" from="hidden" to="visible" fill="freeze"/></path>
							<path class="st12" d="M17.74,88.21c0.22,0.43,0.43,0.86,0.63,1.29"><animate attributeName="visibility" attributeType="CSS" begin="3.1s" dur="0.1s" from="hidden" to="visible" fill="freeze"/></path>
							<path class="st13" d="M18.37,89.5c0.17,0.37,0.34,0.73,0.49,1.08"><animate attributeName="visibility" attributeType="CSS" begin="3.125s" dur="0.1s" from="hidden" to="visible" fill="freeze"/></path>
							<path class="st8" d="M18.86,90.58c0.19,0.44,0.38,0.87,0.54,1.28"><animate attributeName="visibility" attributeType="CSS" begin="3.15s" dur="0.1s" from="hidden" to="visible" fill="freeze"/></path>
							<path class="st14" d="M19.41,91.86c0.15,0.38,0.29,0.74,0.42,1.08"><animate attributeName="visibility" attributeType="CSS" begin="3.175s" dur="0.1s" from="hidden" to="visible" fill="freeze"/></path>
							<path class="st4" d="M19.83,92.94c0.3,0.8,0.54,1.5,0.71,2.04"><animate attributeName="visibility" attributeType="CSS" begin="3.2s" dur="0.1s" from="hidden" to="visible" fill="freeze"/></path>
						</g>
						<g>
							<path class="st20" d="M23.92,77.22c0.34,0.22,0.68,0.46,1.01,0.72"><animate attributeName="visibility" attributeType="CSS" begin="3.5s" dur="0.1s" from="hidden" to="visible" fill="freeze"/></path>
							<path class="st6" d="M24.93,77.93c0.39,0.31,0.78,0.64,1.15,1"><animate attributeName="visibility" attributeType="CSS" begin="3.525s" dur="0.1s" from="hidden" to="visible" fill="freeze"/></path>
							<path class="st17" d="M26.07,78.93c0.3,0.28,0.59,0.58,0.87,0.88"><animate attributeName="visibility" attributeType="CSS" begin="3.55s" dur="0.1s" from="hidden" to="visible" fill="freeze"/></path>
							<path class="st7" d="M26.94,79.82c0.39,0.42,0.76,0.85,1.12,1.3"><animate attributeName="visibility" attributeType="CSS" begin="3.575s" dur="0.1s" from="hidden" to="visible" fill="freeze"/></path>
							<path class="st15" d="M28.06,81.12c0.3,0.37,0.58,0.75,0.86,1.14"><animate attributeName="visibility" attributeType="CSS" begin="3.6s" dur="0.1s" from="hidden" to="visible" fill="freeze"/></path>
							<path class="st10" d="M28.92,82.25c0.26,0.36,0.51,0.72,0.75,1.08"><animate attributeName="visibility" attributeType="CSS" begin="3.625s" dur="0.1s" from="hidden" to="visible" fill="freeze"/></path>
							<path class="st12" d="M29.67,83.34c0.22,0.34,0.44,0.67,0.64,1"><animate attributeName="visibility" attributeType="CSS" begin="3.65s" dur="0.1s" from="hidden" to="visible" fill="freeze"/></path>
							<path class="st13" d="M30.3,84.34c0.23,0.37,0.44,0.73,0.64,1.09"><animate attributeName="visibility" attributeType="CSS" begin="3.675s" dur="0.1s" from="hidden" to="visible" fill="freeze"/></path>
							<path class="st8" d="M30.95,85.43c0.16,0.28,0.31,0.55,0.45,0.81"><animate attributeName="visibility" attributeType="CSS" begin="3.7s" dur="0.1s" from="hidden" to="visible" fill="freeze"/></path>
							<path class="st14" d="M31.4,86.24c0.2,0.36,0.38,0.71,0.54,1.04"><animate attributeName="visibility" attributeType="CSS" begin="3.725s" dur="0.1s" from="hidden" to="visible" fill="freeze"/></path>
							<path class="st4" d="M31.93,87.28c0.34,0.68,0.6,1.27,0.79,1.73"><animate attributeName="visibility" attributeType="CSS" begin="3.75" dur="0.1s" from="hidden" to="visible" fill="freeze"/></path>
						</g>
						<g>
							<path class="st20" d="M35.05,72.28c0.33,0.17,0.65,0.36,0.97,0.57"><animate attributeName="visibility" attributeType="CSS" begin="4.05s" dur="0.1s" from="hidden" to="visible" fill="freeze"/></path>
							<path class="st6" d="M36.02,72.84c0.49,0.31,0.96,0.66,1.41,1.04"><animate attributeName="visibility" attributeType="CSS" begin="4.075s" dur="0.1s" from="hidden" to="visible" fill="freeze"/></path>
							<path class="st17" d="M37.43,73.88c0.42,0.35,0.83,0.71,1.22,1.1"><animate attributeName="visibility" attributeType="CSS" begin="4.1s" dur="0.1s" from="hidden" to="visible" fill="freeze"/></path>
							<path class="st7" d="M38.65,74.98c0.41,0.4,0.8,0.81,1.17,1.23"><animate attributeName="visibility" attributeType="CSS" begin="4.125s" dur="0.1s" from="hidden" to="visible" fill="freeze"/></path>
							<path class="st15" d="M39.82,76.21c0.29,0.33,0.57,0.67,0.84,1.01"><animate attributeName="visibility" attributeType="CSS" begin="4.15s" dur="0.1s" from="hidden" to="visible" fill="freeze"/></path>
							<path class="st10" d="M40.66,77.21c0.31,0.39,0.6,0.77,0.87,1.14"><animate attributeName="visibility" attributeType="CSS" begin="4.175s" dur="0.1s" from="hidden" to="visible" fill="freeze"/></path>
							<path class="st12" d="M41.53,78.36c0.32,0.44,0.61,0.87,0.87,1.27"><animate attributeName="visibility" attributeType="CSS" begin="4.2s" dur="0.1s" from="hidden" to="visible" fill="freeze"/></path>
							<path class="st13" d="M42.39,79.63c0.11,0.17,0.22,0.35,0.32,0.51"><animate attributeName="visibility" attributeType="CSS" begin="4.225s" dur="0.1s" from="hidden" to="visible" fill="freeze"/></path>
							<path class="st8" d="M42.71,80.14c0.15,0.25,0.29,0.49,0.42,0.71"><animate attributeName="visibility" attributeType="CSS" begin="4.25s" dur="0.1s" from="hidden" to="visible" fill="freeze"/></path>
							<path class="st14" d="M43.13,80.85c0.09,0.16,0.18,0.32,0.25,0.46"><animate attributeName="visibility" attributeType="CSS" begin="4.275s" dur="0.1s" from="hidden" to="visible" fill="freeze"/></path>
							<path class="st4" d="M43.39,81.31c0.08,0.15,0.16,0.29,0.22,0.42"><animate attributeName="visibility" attributeType="CSS" begin="4.3s" dur="0.1s" from="hidden" to="visible" fill="freeze"/></path>
						</g>
					</g>
					<g>
						<g>
							<path class="st8" d="M61.62,15.41c0.05,0.6,0.11,1.54-0.11,2.39c-0.13,0.51-0.31,1.08-0.53,1.7"><animate attributeName="visibility" attributeType="CSS" begin="4.7s" dur="0.1s" from="hidden" to="visible" fill="freeze"/></path>
							<path class="st13" d="M60.97,19.49c-0.19,0.52-0.4,1.08-0.65,1.67"><animate attributeName="visibility" attributeType="CSS" begin="4.75s" dur="0.1s" from="hidden" to="visible" fill="freeze"/></path>
							<path class="st12" d="M60.32,21.16c-0.29,0.67-0.61,1.39-0.98,2.13"><animate attributeName="visibility" attributeType="CSS" begin="4.8s" dur="0.1s" from="hidden" to="visible" fill="freeze"/></path>
							<path class="st10" d="M59.33,23.29c-0.33,0.67-0.7,1.37-1.11,2.09"><animate attributeName="visibility" attributeType="CSS" begin="4.85s" dur="0.1s" from="hidden" to="visible" fill="freeze"/></path>
							<path class="st15" d="M58.23,25.38c-0.45,0.8-0.95,1.62-1.49,2.45"><animate attributeName="visibility" attributeType="CSS" begin="4.875" dur="0.1s" from="hidden" to="visible" fill="freeze"/></path>
							<path class="st7" d="M56.74,27.82c-0.58,0.89-1.2,1.79-1.88,2.69"><animate attributeName="visibility" attributeType="CSS" begin="4.9s" dur="0.1s" from="hidden" to="visible" fill="freeze"/></path>
							<path class="st17" d="M54.86,30.51c-0.45,0.6-0.92,1.2-1.42,1.79"><animate attributeName="visibility" attributeType="CSS" begin="4.925s" dur="0.1s" from="hidden" to="visible" fill="freeze"/></path>
							<path class="st6" d="M53.44,32.31c-0.59,0.71-1.21,1.41-1.86,2.1"><animate attributeName="visibility" attributeType="CSS" begin="4.95s" dur="0.1s" from="hidden" to="visible" fill="freeze"/></path>
							<path class="st20" d="M51.58,34.41c-0.27,0.29-0.54,0.57-0.82,0.85"><animate attributeName="visibility" attributeType="CSS" begin="4.975s" dur="0.1s" from="hidden" to="visible" fill="freeze"/></path>
							<path class="st2" d="M50.76,35.26c-0.33,0.33-0.67,0.66-1.01,0.99"><animate attributeName="visibility" attributeType="CSS" begin="5.0s" dur="0.1s" from="hidden" to="visible" fill="freeze"/></path>
							<path class="st3" d="M49.75,36.25c-0.28,0.26-0.56,0.52-0.85,0.78"><animate attributeName="visibility" attributeType="CSS" begin="5.025s" dur="0.1s" from="hidden" to="visible" fill="freeze"/></path>
							<path class="st0" d="M48.9,37.02c-0.42,0.38-0.85,0.75-1.29,1.11"><animate attributeName="visibility" attributeType="CSS" begin="5.05s" dur="0.1s" from="hidden" to="visible" fill="freeze"/></path>
							<path class="st1" d="M47.61,38.13c-0.25,0.2-0.5,0.4-0.75,0.6"><animate attributeName="visibility" attributeType="CSS" begin="5.075s" dur="0.1s" from="hidden" to="visible" fill="freeze"/></path>
							<path class="st22" d="M46.86,38.73c-0.34,0.27-0.7,0.53-1.05,0.79"><animate attributeName="visibility" attributeType="CSS" begin="5.1s" dur="0.1s" from="hidden" to="visible" fill="freeze"/></path>
							<path class="st11" d="M45.81,39.52c-0.53,0.39-1.08,0.77-1.64,1.13"><animate attributeName="visibility" attributeType="CSS" begin="5.1s" dur="0.1s" from="hidden" to="visible" fill="freeze"/></path>
						</g>
						<g>
							<path class="st15" d="M60.88,22.97c0.54-0.06,1.27-0.21,2.13-0.42"><animate attributeName="visibility" attributeType="CSS" begin="5.4s" dur="0.1s" from="hidden" to="visible" fill="freeze"/></path>
							<path class="st7" d="M63.01,22.54c0.49-0.12,1.03-0.27,1.6-0.43"><animate attributeName="visibility" attributeType="CSS" begin="5.45s" dur="0.1s" from="hidden" to="visible" fill="freeze"/></path>
							<path class="st17" d="M64.61,22.11c1.2-0.34,2.55-0.76,3.94-1.19"><animate attributeName="visibility" attributeType="CSS" begin="5.5s" dur="0.1s" from="hidden" to="visible" fill="freeze"/></path>
							<path class="st17" d="M68.55,20.92c1.12-0.35,2.27-0.72,3.41-1.08"><animate attributeName="visibility" attributeType="CSS" begin="5.55s" dur="0.1s" from="hidden" to="visible" fill="freeze"/></path>
							<path class="st17" d="M71.95,19.83c0.53-0.17,1.06-0.33,1.57-0.5"><animate attributeName="visibility" attributeType="CSS" begin="5.6s" dur="0.1s" from="hidden" to="visible" fill="freeze"/></path>
							<path class="st7" d="M73.53,19.34c0.57-0.18,1.13-0.35,1.67-0.51"><animate attributeName="visibility" attributeType="CSS" begin="5.65s" dur="0.1s" from="hidden" to="visible" fill="freeze"/></path>
							<path class="st15" d="M75.2,18.82c0.72-0.22,1.41-0.42,2.05-0.6"><animate attributeName="visibility" attributeType="CSS" begin="5.7s" dur="0.1s" from="hidden" to="visible" fill="freeze"/></path>
							<path class="st10" d="M77.25,18.23c0.63-0.18,1.21-0.33,1.73-0.44"><animate attributeName="visibility" attributeType="CSS" begin="5.75s" dur="0.1s" from="hidden" to="visible" fill="freeze"/></path>
							<path class="st12" d="M78.97,17.79c1.99-0.46,2.97,0.21,3.18,1.23"><animate attributeName="visibility" attributeType="CSS" begin="5.8s" dur="0.1s" from="hidden" to="visible" fill="freeze"/></path>
							<path class="st13" d="M82.16,19.01c0.13,0.62-0.02,1.36-0.4,2.07"><animate attributeName="visibility" attributeType="CSS" begin="5.85s" dur="0.1s" from="hidden" to="visible" fill="freeze"/></path>
							<path class="st8" d="M81.75,21.09c-0.84,1.56-1.7,3.12-2.59,4.68"><animate attributeName="visibility" attributeType="CSS" begin="5.9s" dur="0.1s" from="hidden" to="visible" fill="freeze"/></path>
							<path class="st13" d="M79.16,25.77c-0.8,1.4-1.63,2.79-2.49,4.17"><animate attributeName="visibility" attributeType="CSS" begin="5.95s" dur="0.1s" from="hidden" to="visible" fill="freeze"/></path>
							<path class="st12" d="M76.67,29.94c-1.08,1.75-2.21,3.48-3.41,5.2"><animate attributeName="visibility" attributeType="CSS" begin="6.0s" dur="0.1s" from="hidden" to="visible" fill="freeze"/></path>
							<path class="st10" d="M73.27,35.14c-1.03,1.47-2.1,2.94-3.22,4.37"><animate attributeName="visibility" attributeType="CSS" begin="6.05s" dur="0.1s" from="hidden" to="visible" fill="freeze"/></path>
							<path class="st15" d="M70.05,39.51c-1.03,1.33-2.11,2.63-3.24,3.92"><animate attributeName="visibility" attributeType="CSS" begin="6.1s" dur="0.1s" from="hidden" to="visible" fill="freeze"/></path>
							<path class="st7" d="M66.81,43.43c-0.91,1.04-1.85,2.06-2.82,3.06"><animate attributeName="visibility" attributeType="CSS" begin="6.125s" dur="0.1s" from="hidden" to="visible" fill="freeze"/></path>
							<path class="st17" d="M63.99,46.49c-0.88,0.91-1.78,1.8-2.71,2.67"><animate attributeName="visibility" attributeType="CSS" begin="6.15s" dur="0.1s" from="hidden" to="visible" fill="freeze"/></path>
							<path class="st6" d="M61.28,49.16c-0.79,0.74-1.6,1.47-2.43,2.18"><animate attributeName="visibility" attributeType="CSS" begin="6.175s" dur="0.1s" from="hidden" to="visible" fill="freeze"/></path>
							<path class="st20" d="M58.85,51.35c-0.78,0.68-1.59,1.34-2.41,1.99"><animate attributeName="visibility" attributeType="CSS" begin="6.2s" dur="0.1s" from="hidden" to="visible" fill="freeze"/></path>
							<path class="st2" d="M56.44,53.34c-0.83,0.66-1.69,1.31-2.56,1.94"><animate attributeName="visibility" attributeType="CSS" begin="6.225s" dur="0.1s" from="hidden" to="visible" fill="freeze"/></path>
							<path class="st3" d="M53.87,55.28c-0.72,0.52-1.45,1.03-2.2,1.53"><animate attributeName="visibility" attributeType="CSS" begin="6.25s" dur="0.1s" from="hidden" to="visible" fill="freeze"/></path>
							<path class="st0" d="M51.67,56.81c-0.67,0.45-1.34,0.88-2.03,1.31"><animate attributeName="visibility" attributeType="CSS" begin="6.275s" dur="0.1s" from="hidden" to="visible" fill="freeze"/></path>
							<path class="st1" d="M49.64,58.12c-0.41,0.26-0.83,0.51-1.25,0.77"><animate attributeName="visibility" attributeType="CSS" begin="6.3s" dur="0.1s" from="hidden" to="visible" fill="freeze"/></path>
							<path class="st22" d="M48.38,58.89c-0.36,0.22-0.73,0.43-1.1,0.64"><animate attributeName="visibility" attributeType="CSS" begin="6.325s" dur="0.1s" from="hidden" to="visible" fill="freeze"/></path>
							<path class="st11" d="M47.29,59.53c-0.39,0.23-0.79,0.45-1.18,0.67"><animate attributeName="visibility" attributeType="CSS" begin="6.35s" dur="0.1s" from="hidden" to="visible" fill="freeze"/></path>
							<path class="st21" d="M46.1,60.2c-0.43,0.24-0.87,0.47-1.31,0.7"><animate attributeName="visibility" attributeType="CSS" begin="6.35s" dur="0.1s" from="hidden" to="visible" fill="freeze"/></path>
						</g>
						<g>
							<path class="st20" d="M55.89,30.64c1.25,1.1,2.73,2.37,4.36,3.74"><animate attributeName="visibility" attributeType="CSS" begin="6.65s" dur="0.1s" from="hidden" to="visible" fill="freeze"/></path>							
							<path class="st6" d="M60.25,34.38c1.14,0.96,2.35,1.98,3.62,3.03"><animate attributeName="visibility" attributeType="CSS" begin="6.675s" dur="0.1s" from="hidden" to="visible" fill="freeze"/></path>
							<path class="st17" d="M63.87,37.4c0.87,0.72,1.77,1.45,2.68,2.19"><animate attributeName="visibility" attributeType="CSS" begin="6.7s" dur="0.1s" from="hidden" to="visible" fill="freeze"/></path>
							<path class="st7" d="M66.55,39.6c0.92,0.75,1.87,1.51,2.82,2.27"><animate attributeName="visibility" attributeType="CSS" begin="6.725s" dur="0.1s" from="hidden" to="visible" fill="freeze"/></path>
							<path class="st15" d="M69.37,41.87c0.77,0.61,1.54,1.22,2.32,1.83"><animate attributeName="visibility" attributeType="CSS" begin="6.75s" dur="0.1s" from="hidden" to="visible" fill="freeze"/></path>
							<path class="st10" d="M71.69,43.7c1.1,0.86,2.21,1.72,3.31,2.56"><animate attributeName="visibility" attributeType="CSS" begin="6.775s" dur="0.1s" from="hidden" to="visible" fill="freeze"/></path>
							<path class="st12" d="M75,46.25c1.11,0.84,2.21,1.66,3.28,2.45"><animate attributeName="visibility" attributeType="CSS" begin="6.8s" dur="0.1s" from="hidden" to="visible" fill="freeze"/></path>
							<path class="st13" d="M78.28,48.71c1.04,0.76,2.06,1.49,3.05,2.18"><animate attributeName="visibility" attributeType="CSS" begin="6.85s" dur="0.1s" from="hidden" to="visible" fill="freeze"/></path>
							<path class="st8" d="M81.33,50.89c0.82,0.57,1.62,1.12,2.4,1.63"><animate attributeName="visibility" attributeType="CSS" begin="6.9s" dur="0.1s" from="hidden" to="visible" fill="freeze"/></path>
							<path class="st14" d="M83.73,52.53c0.68,0.45,1.35,0.88,1.99,1.28"><animate attributeName="visibility" attributeType="CSS" begin="6.95s" dur="0.1s" from="hidden" to="visible" fill="freeze"/></path>
							<path class="st4" d="M85.72,53.81c0.56,0.35,1.11,0.68,1.63,0.98"><animate attributeName="visibility" attributeType="CSS" begin="7.0s" dur="0.1s" from="hidden" to="visible" fill="freeze"/></path>
							<path class="st16" d="M87.35,54.79c0.58,0.33,1.12,0.64,1.64,0.9"><animate attributeName="visibility" attributeType="CSS" begin="7.05s" dur="0.1s" from="hidden" to="visible" fill="freeze"/></path>
							<path class="st5" d="M89,55.7c0.6,0.31,1.18,0.59,1.74,0.83"><animate attributeName="visibility" attributeType="CSS" begin="7.125s" dur="0.1s" from="hidden" to="visible" fill="freeze"/></path>
							<path class="st5" d="M90.74,56.52c0.5,0.22,0.99,0.41,1.48,0.57"><animate attributeName="visibility" attributeType="CSS" begin="7.2s" dur="0.1s" from="hidden" to="visible" fill="freeze"/></path>
							<path class="st18" d="M92.22,57.1c0.71,0.25,1.41,0.44,2.13,0.61"><animate attributeName="visibility" attributeType="CSS" begin="7.275s" dur="0.1s" from="hidden" to="visible" fill="freeze"/></path>
							<path class="st19" d="M94.35,57.71c0.56,0.13,1.13,0.24,1.73,0.33"><animate attributeName="visibility" attributeType="CSS" begin="7.35s" dur="0.1s" from="hidden" to="visible" fill="freeze"/></path>
						</g>
						<g>
							<path class="st20" d="M59.56,60.24c0.37,0.09,0.76,0.2,1.16,0.32"><animate attributeName="visibility" attributeType="CSS" begin="7.75s" dur="0.1s" from="hidden" to="visible" fill="freeze"/></path>
							<path class="st6" d="M60.72,60.56c0.47,0.14,0.95,0.3,1.44,0.47"><animate attributeName="visibility" attributeType="CSS" begin="7.775s" dur="0.1s" from="hidden" to="visible" fill="freeze"/></path>
							<path class="st17" d="M62.17,61.02c0.47,0.16,0.96,0.34,1.44,0.53"><animate attributeName="visibility" attributeType="CSS" begin="7.8s" dur="0.1s" from="hidden" to="visible" fill="freeze"/></path>
							<path class="st7" d="M63.61,61.55c0.33,0.13,0.66,0.26,0.99,0.39"><animate attributeName="visibility" attributeType="CSS" begin="7.825s" dur="0.1s" from="hidden" to="visible" fill="freeze"/></path>
							<path class="st15" d="M64.6,61.94c0.32,0.13,0.64,0.27,0.97,0.4"><animate attributeName="visibility" attributeType="CSS" begin="7.85s" dur="0.1s" from="hidden" to="visible" fill="freeze"/></path>
							<path class="st10" d="M65.56,62.34c0.36,0.15,0.73,0.31,1.09,0.48"><animate attributeName="visibility" attributeType="CSS" begin="7.875s" dur="0.1s" from="hidden" to="visible" fill="freeze"/></path>
							<path class="st12" d="M66.65,62.82c0.37,0.17,0.74,0.34,1.1,0.51"><animate attributeName="visibility" attributeType="CSS" begin="7.9s" dur="0.1s" from="hidden" to="visible" fill="freeze"/></path>
							<path class="st13" d="M67.75,63.33c0.9,0.43,1.78,0.87,2.59,1.31"><animate attributeName="visibility" attributeType="CSS" begin="7.925s" dur="0.1s" from="hidden" to="visible" fill="freeze"/></path>
							<path class="st8" d="M70.35,64.64c0.48,0.26,0.94,0.52,1.38,0.78"><animate attributeName="visibility" attributeType="CSS" begin="7.95s" dur="0.1s" from="hidden" to="visible" fill="freeze"/></path>
							<path class="st8" d="M71.72,65.42c0.53,0.31,1.01,0.62,1.45,0.92"><animate attributeName="visibility" attributeType="CSS" begin="7.975s" dur="0.1s" from="hidden" to="visible" fill="freeze"/></path>
							<path class="st14" d="M73.17,66.34c0.49,0.34,0.92,0.66,1.28,0.96"><animate attributeName="visibility" attributeType="CSS" begin="8.0s" dur="0.1s" from="hidden" to="visible" fill="freeze"/></path>
							<path class="st4" d="M74.45,67.3c0.39,0.34,0.69,0.65,0.87,0.93"><animate attributeName="visibility" attributeType="CSS" begin="8.025s" dur="0.1s" from="hidden" to="visible" fill="freeze"/></path>
						</g>
						<g>
							<path class="st20" d="M56.81,78.74c0.43,0.13,0.87,0.27,1.3,0.42"><animate attributeName="visibility" attributeType="CSS" begin="8.325s" dur="0.1s" from="hidden" to="visible" fill="freeze"/></path>
							<path class="st6" d="M58.12,79.15c0.51,0.17,1.03,0.36,1.54,0.56"><animate attributeName="visibility" attributeType="CSS" begin="8.35s" dur="0.1s" from="hidden" to="visible" fill="freeze"/></path>
							<path class="st17" d="M59.66,79.71c0.6,0.23,1.21,0.48,1.81,0.75"><animate attributeName="visibility" attributeType="CSS" begin="8.375s" dur="0.1s" from="hidden" to="visible" fill="freeze"/></path>
							<path class="st7" d="M61.46,80.46c0.7,0.31,1.39,0.63,2.07,0.97"><animate attributeName="visibility" attributeType="CSS" begin="8.4s" dur="0.1s" from="hidden" to="visible" fill="freeze"/></path>
							<path class="st15" d="M63.54,81.43c0.82,0.41,1.62,0.83,2.41,1.28"><animate attributeName="visibility" attributeType="CSS" begin="8.425s" dur="0.1s" from="hidden" to="visible" fill="freeze"/></path>
							<path class="st10" d="M65.95,82.71c0.8,0.45,1.58,0.91,2.34,1.39"><animate attributeName="visibility" attributeType="CSS" begin="8.45s" dur="0.1s" from="hidden" to="visible" fill="freeze"/></path>
							<path class="st12" d="M68.29,84.1c0.73,0.46,1.44,0.93,2.13,1.4"><animate attributeName="visibility" attributeType="CSS" begin="8.475s" dur="0.1s" from="hidden" to="visible" fill="freeze"/></path>
							<path class="st13" d="M70.42,85.5c0.75,0.52,1.47,1.04,2.16,1.57"><animate attributeName="visibility" attributeType="CSS" begin="8.5s" dur="0.1s" from="hidden" to="visible" fill="freeze"/></path>
							<path class="st8" d="M72.58,87.06c0.51,0.39,1,0.78,1.47,1.17"><animate attributeName="visibility" attributeType="CSS" begin="8.525s" dur="0.1s" from="hidden" to="visible" fill="freeze"/></path>
							<path class="st14" d="M74.04,88.23c0.55,0.45,1.07,0.9,1.55,1.35"><animate attributeName="visibility" attributeType="CSS" begin="8.55s" dur="0.1s" from="hidden" to="visible" fill="freeze"/></path>
							<path class="st4" d="M75.6,89.58c1.22,1.12,2.23,2.19,2.97,3.16"><animate attributeName="visibility" attributeType="CSS" begin="8.575s" dur="0.1s" from="hidden" to="visible" fill="freeze"/></path>
						</g>
					</g>
				</g>
				<g>
					<g>
						<rect x="0.5" y="0.5" class="st9" width="108" height="108"/> 
					</g>
				</g>
			</g>
		</g>
		<g id="Layer_1">
		</g>
	</svg>
